<svg width="21" height="21" viewBox="0 0 21 21" fill="none" xmlns="http://www.w3.org/2000/svg">
<path d="M16.3449 14.8195L16.6699 17.4528C16.7533 18.1445 16.0116 18.6278 15.4199 18.2695L12.5366 16.5528C12.3366 16.4362 12.2866 16.1862 12.3949 15.9862C12.8116 15.2195 13.0366 14.3528 13.0366 13.4862C13.0366 10.4362 10.4199 7.95285 7.20325 7.95285C6.54492 7.95285 5.90325 8.05285 5.30325 8.25285C4.99492 8.35285 4.69492 8.06952 4.76992 7.75285C5.52825 4.71952 8.44492 2.46118 11.9283 2.46118C15.9949 2.46118 19.2866 5.53618 19.2866 9.32785C19.2866 11.5778 18.1282 13.5695 16.3449 14.8195Z" fill="white"/>
<path d="M11.7866 13.4862C11.7866 14.4779 11.4199 15.3945 10.8032 16.1195C9.97824 17.1195 8.6699 17.7612 7.20324 17.7612L5.02824 19.0529C4.66157 19.2779 4.1949 18.9695 4.2449 18.5445L4.45324 16.9029C3.33657 16.1279 2.6199 14.8862 2.6199 13.4862C2.6199 12.0195 3.40324 10.7279 4.60324 9.96121C5.3449 9.47788 6.23657 9.20288 7.20324 9.20288C9.73657 9.20288 11.7866 11.1195 11.7866 13.4862Z" fill="white"/>
</svg>
