<svg width="21" height="21" viewBox="0 0 21 21" fill="none" xmlns="http://www.w3.org/2000/svg">
<path d="M16.3448 14.8194L16.6698 17.4527C16.7532 18.1444 16.0115 18.6277 15.4198 18.2694L11.9282 16.1944C11.5448 16.1944 11.1698 16.1694 10.8032 16.1194C11.4198 15.3944 11.7865 14.4777 11.7865 13.486C11.7865 11.1194 9.73649 9.20275 7.20316 9.20275C6.23649 9.20275 5.34483 9.47773 4.60316 9.96106C4.57816 9.75273 4.56982 9.54438 4.56982 9.32772C4.56982 5.53605 7.86149 2.46106 11.9282 2.46106C15.9948 2.46106 19.2865 5.53605 19.2865 9.32772C19.2865 11.5777 18.1282 13.5694 16.3448 14.8194Z" stroke="#8A96B2" stroke-width="1.25" stroke-linecap="round" stroke-linejoin="round"/>
<path d="M11.7865 13.4861C11.7865 14.4777 11.4199 15.3944 10.8032 16.1194C9.97821 17.1194 8.66987 17.7611 7.20321 17.7611L5.02821 19.0527C4.66154 19.2777 4.19487 18.9694 4.24487 18.5444L4.4532 16.9028C3.33654 16.1278 2.61987 14.8861 2.61987 13.4861C2.61987 12.0194 3.40321 10.7277 4.60321 9.96107C5.34488 9.47774 6.23654 9.20276 7.20321 9.20276C9.73654 9.20276 11.7865 11.1194 11.7865 13.4861Z" stroke="#8A96B2" stroke-width="1.25" stroke-linecap="round" stroke-linejoin="round"/>
</svg>
