<svg width="21" height="20" viewBox="0 0 21 20" fill="none" xmlns="http://www.w3.org/2000/svg">
<path d="M17.9883 13.2751C17.855 13.0501 17.48 12.7001 16.5466 12.8667C16.03 12.9584 15.505 13.0001 14.98 12.9751C13.0383 12.8917 11.28 12.0001 10.055 10.6251C8.97163 9.41672 8.30496 7.84172 8.29663 6.14172C8.29663 5.19172 8.47996 4.27506 8.85496 3.40839C9.22163 2.56672 8.9633 2.12506 8.77996 1.94172C8.5883 1.75006 8.1383 1.48339 7.25496 1.85006C3.84663 3.28339 1.7383 6.70006 1.9883 10.3584C2.2383 13.8001 4.65497 16.7417 7.85496 17.8501C8.62163 18.1167 9.42997 18.2751 10.2633 18.3084C10.3966 18.3167 10.53 18.3251 10.6633 18.3251C13.455 18.3251 16.0716 17.0084 17.7216 14.7667C18.28 13.9917 18.13 13.5001 17.9883 13.2751Z" fill="white"/>
</svg>
