<svg width="21" height="20" viewBox="0 0 21 20" fill="none" xmlns="http://www.w3.org/2000/svg">
<path d="M17.9393 5.83341V14.1667C17.9393 16.6667 16.6893 18.3334 13.7726 18.3334H7.10594C4.18927 18.3334 2.93927 16.6667 2.93927 14.1667V5.83341C2.93927 3.33341 4.18927 1.66675 7.10594 1.66675H13.7726C16.6893 1.66675 17.9393 3.33341 17.9393 5.83341Z" stroke="#8A96B2" stroke-width="1.25" stroke-miterlimit="10" stroke-linecap="round" stroke-linejoin="round"/>
<path d="M13.3559 1.66675V8.21674C13.3559 8.5834 12.9226 8.76673 12.6559 8.52506L10.7226 6.74177C10.5643 6.59177 10.3142 6.59177 10.1559 6.74177L8.22261 8.52506C7.95594 8.76673 7.52258 8.5834 7.52258 8.21674V1.66675H13.3559Z" stroke="#8A96B2" stroke-width="1.25" stroke-miterlimit="10" stroke-linecap="round" stroke-linejoin="round"/>
<path d="M11.481 11.6667H15.0226" stroke="#8A96B2" stroke-width="1.25" stroke-miterlimit="10" stroke-linecap="round" stroke-linejoin="round"/>
<path d="M7.93927 15H15.0226" stroke="#8A96B2" stroke-width="1.25" stroke-miterlimit="10" stroke-linecap="round" stroke-linejoin="round"/>
</svg>
