<svg width="21" height="20" viewBox="0 0 21 20" fill="none" xmlns="http://www.w3.org/2000/svg">
<path d="M12.8809 2.08329V6.99996C12.8809 7.36663 12.4475 7.54996 12.1809 7.30829L10.7225 5.96663C10.5642 5.81663 10.3142 5.81663 10.1559 5.96663L8.69753 7.29996C8.43086 7.54996 7.99753 7.35829 7.99753 6.99996V2.08329C7.99753 1.84996 8.18086 1.66663 8.41419 1.66663H12.4642C12.6975 1.66663 12.8809 1.84996 12.8809 2.08329Z" fill="white"/>
<path d="M14.5892 1.71665C14.3476 1.68332 14.1309 1.89165 14.1309 2.13332V7.14999C14.1309 7.78332 13.7559 8.35832 13.1726 8.61665C12.5892 8.86665 11.9142 8.75832 11.4476 8.32499L10.7226 7.65832C10.5642 7.50832 10.3226 7.50832 10.1559 7.65832L9.43091 8.32499C9.13091 8.60832 8.73924 8.74999 8.34757 8.74999C8.13091 8.74999 7.91424 8.70832 7.70591 8.61665C7.12257 8.35832 6.74757 7.78332 6.74757 7.14999V2.13332C6.74757 1.89165 6.53091 1.68332 6.28924 1.71665C3.95591 2.00832 2.93924 3.58332 2.93924 5.83332V14.1667C2.93924 16.6667 4.18924 18.3333 7.10591 18.3333H13.7726C16.6892 18.3333 17.9392 16.6667 17.9392 14.1667V5.83332C17.9392 3.58332 16.9226 2.00832 14.5892 1.71665ZM15.0226 15.625H7.93924C7.59757 15.625 7.31424 15.3417 7.31424 15C7.31424 14.6583 7.59757 14.375 7.93924 14.375H15.0226C15.3642 14.375 15.6476 14.6583 15.6476 15C15.6476 15.3417 15.3642 15.625 15.0226 15.625ZM15.0226 12.2917H11.4809C11.1392 12.2917 10.8559 12.0083 10.8559 11.6667C10.8559 11.325 11.1392 11.0417 11.4809 11.0417H15.0226C15.3642 11.0417 15.6476 11.325 15.6476 11.6667C15.6476 12.0083 15.3642 12.2917 15.0226 12.2917Z" fill="white"/>
</svg>
