<svg width="18" height="18" viewBox="0 0 18 18" fill="none" xmlns="http://www.w3.org/2000/svg">
<path d="M15.75 4.48501C13.2525 4.23751 10.74 4.11001 8.235 4.11001C6.75 4.11001 5.265 4.18501 3.78 4.33501L2.25 4.48501" stroke="white" stroke-width="1.125" stroke-linecap="round" stroke-linejoin="round"/>
<path d="M6.375 3.7275L6.54 2.745C6.66 2.0325 6.75 1.5 8.0175 1.5H9.9825C11.25 1.5 11.3475 2.0625 11.46 2.7525L11.625 3.7275" stroke="white" stroke-width="1.125" stroke-linecap="round" stroke-linejoin="round"/>
<path d="M14.1374 6.85501L13.6499 14.4075C13.5674 15.585 13.4999 16.5 11.4074 16.5H6.59243C4.49993 16.5 4.43243 15.585 4.34993 14.4075L3.86243 6.85501" stroke="white" stroke-width="1.125" stroke-linecap="round" stroke-linejoin="round"/>
<path d="M7.74756 12.375H10.2451" stroke="white" stroke-width="1.125" stroke-linecap="round" stroke-linejoin="round"/>
<path d="M7.125 9.375H10.875" stroke="white" stroke-width="1.125" stroke-linecap="round" stroke-linejoin="round"/>
</svg>
