<svg width="20" height="20" viewBox="0 0 20 20" fill="none" xmlns="http://www.w3.org/2000/svg">
<path d="M10.0001 1.66675C5.40008 1.66675 1.66675 5.40008 1.66675 10.0001C1.66675 14.6001 5.40008 18.3334 10.0001 18.3334C14.6001 18.3334 18.3334 14.6001 18.3334 10.0001C18.3334 5.40008 14.6001 1.66675 10.0001 1.66675ZM14.1667 14.5584C12.7417 14.5584 11.4084 13.9417 10.3417 12.8001C9.13341 13.8917 7.55841 14.5584 5.83341 14.5584C5.49175 14.5584 5.20841 14.2751 5.20841 13.9334C5.20841 13.5917 5.49175 13.3084 5.83341 13.3084C8.72508 13.3084 11.1167 11.0167 11.4251 8.08341H10.0001H5.84175C5.50008 8.08341 5.21675 7.80008 5.21675 7.45841C5.21675 7.11675 5.50008 6.84175 5.84175 6.84175H9.37508V6.06675C9.37508 5.72508 9.65841 5.44175 10.0001 5.44175C10.3417 5.44175 10.6251 5.72508 10.6251 6.06675V6.84175H12.0334C12.0501 6.84175 12.0667 6.83341 12.0834 6.83341C12.1001 6.83341 12.1167 6.84175 12.1334 6.84175H14.1584C14.5001 6.84175 14.7834 7.12508 14.7834 7.46675C14.7834 7.80841 14.5001 8.09175 14.1584 8.09175H12.6751C12.5501 9.51675 12.0167 10.8251 11.2001 11.8917C12.0334 12.8167 13.0751 13.3167 14.1667 13.3167C14.5084 13.3167 14.7917 13.6001 14.7917 13.9417C14.7917 14.2834 14.5084 14.5584 14.1667 14.5584Z" fill="#FBFAF8"/>
</svg>
