<svg width="20" height="20" viewBox="0 0 20 20" fill="none" xmlns="http://www.w3.org/2000/svg">
<path d="M17.4252 9.2666V5.60827C17.4252 4.92493 16.9085 4.14993 16.2669 3.8916L11.6252 1.9916C10.5835 1.5666 9.40853 1.5666 8.36686 1.9916L3.7252 3.8916C3.09186 4.14993 2.5752 4.92493 2.5752 5.60827V9.2666C2.5752 13.3416 5.53353 17.1583 9.57519 18.2749C9.85019 18.3499 10.1502 18.3499 10.4252 18.2749C14.4669 17.1583 17.4252 13.3416 17.4252 9.2666ZM10.6252 10.7249V12.9166C10.6252 13.2583 10.3419 13.5416 10.0002 13.5416C9.65853 13.5416 9.3752 13.2583 9.3752 12.9166V10.7249C8.53353 10.4583 7.91686 9.67493 7.91686 8.74993C7.91686 7.59994 8.8502 6.6666 10.0002 6.6666C11.1502 6.6666 12.0835 7.59994 12.0835 8.74993C12.0835 9.68327 11.4669 10.4583 10.6252 10.7249Z" fill="#FBFAF8"/>
</svg>
