<svg width="21" height="21" viewBox="0 0 21 21" fill="none" xmlns="http://www.w3.org/2000/svg">
<path d="M16.3439 5.31105L12.0356 2.81938C11.2106 2.34438 9.91894 2.34438 9.09395 2.81938L4.74395 5.32772C3.01895 6.49438 2.91895 6.66938 2.91895 8.52772V13.0527C2.91895 14.9111 3.01895 15.0944 4.77728 16.2777L9.08561 18.7694C9.50228 19.0111 10.0356 19.1277 10.5606 19.1277C11.0856 19.1277 11.6189 19.0111 12.0273 18.7694L16.3773 16.2611C18.1023 15.0944 18.2023 14.9194 18.2023 13.0611V8.52772C18.2023 6.66938 18.1023 6.49438 16.3439 5.31105ZM10.5606 13.5027C9.06895 13.5027 7.85228 12.2861 7.85228 10.7944C7.85228 9.30272 9.06895 8.08605 10.5606 8.08605C12.0523 8.08605 13.2689 9.30272 13.2689 10.7944C13.2689 12.2861 12.0523 13.5027 10.5606 13.5027Z" fill="white"/>
</svg>
