<svg width="21" height="21" viewBox="0 0 21 21" fill="none" xmlns="http://www.w3.org/2000/svg">
<path d="M3.06055 8.38601V13.1943C3.06055 14.961 3.06055 14.961 4.72721 16.086L9.31055 18.736C10.0022 19.136 11.1272 19.136 11.8105 18.736L16.3939 16.086C18.0605 14.961 18.0605 14.961 18.0605 13.2027V8.38601C18.0605 6.62767 18.0605 6.62767 16.3939 5.50267L11.8105 2.85267C11.1272 2.45267 10.0022 2.45267 9.31055 2.85267L4.72721 5.50267C3.06055 6.62767 3.06055 6.62767 3.06055 8.38601Z" stroke="#8A96B2" stroke-width="1.25" stroke-linecap="round" stroke-linejoin="round"/>
<path d="M10.5605 13.2944C11.9413 13.2944 13.0605 12.1751 13.0605 10.7944C13.0605 9.41366 11.9413 8.29437 10.5605 8.29437C9.17983 8.29437 8.06055 9.41366 8.06055 10.7944C8.06055 12.1751 9.17983 13.2944 10.5605 13.2944Z" stroke="#8A96B2" stroke-width="1.25" stroke-linecap="round" stroke-linejoin="round"/>
</svg>
